<svg xmlns="http://www.w3.org/2000/svg" version="1.1" xmlns:xlink="http://www.w3.org/1999/xlink" width="1000" height="1000"><style>
    #light-icon {
      display: inline;
    }
    #dark-icon {
      display: none;
    }

    @media (prefers-color-scheme: dark) {
      #light-icon {
        display: none;
      }
      #dark-icon {
        display: inline;
      }
    }
  </style><g id="light-icon"><svg xmlns="http://www.w3.org/2000/svg" version="1.1" xmlns:xlink="http://www.w3.org/1999/xlink" width="1000" height="1000"><g><g transform="matrix(15.625,0,0,15.625,0,0)" style="filter: contrast(1) brightness(1)"><svg xmlns="http://www.w3.org/2000/svg" version="1.1" xmlns:xlink="http://www.w3.org/1999/xlink" width="64" height="64"><svg xmlns="http://www.w3.org/2000/svg" viewBox="0 0 64 64" role="img" aria-labelledby="title desc">
  <title id="title">S&amp;Z Trading Icon</title>
  <desc id="desc">Monogram icon for S&amp;Z Trading International</desc>
  <defs>
    <linearGradient id="sz-gradient" x1="0" y1="0" x2="1" y2="1">
      <stop offset="0%" stop-color="hsl(222, 76%, 40%)"></stop>
      <stop offset="100%" stop-color="hsl(25, 95%, 53%)"></stop>
    </linearGradient>
  </defs>
  <rect x="4" y="4" width="56" height="56" rx="14" fill="url(#sz-gradient)"></rect>
  <g fill="white" opacity="0.35">
    <rect x="10" y="20" width="18" height="2" rx="1"></rect>
    <rect x="10" y="28" width="24" height="2" rx="1"></rect>
    <rect x="10" y="36" width="16" height="2" rx="1"></rect>
  </g>
  <text x="50%" y="52%" text-anchor="middle" font-family="system-ui, -apple-system, BlinkMacSystemFont, 'Segoe UI', sans-serif" font-size="30" font-weight="700" letter-spacing="2" fill="white">
    SZ
  </text>
</svg></svg></g></g></svg></g><g id="dark-icon"><svg xmlns="http://www.w3.org/2000/svg" version="1.1" xmlns:xlink="http://www.w3.org/1999/xlink" width="1000" height="1000"><g clip-path="url(#SvgjsClipPath1295)"><rect width="1000" height="1000" fill="#564747"></rect><g transform="matrix(15.625,0,0,15.625,0,0)"><svg xmlns="http://www.w3.org/2000/svg" version="1.1" xmlns:xlink="http://www.w3.org/1999/xlink" width="64" height="64"><svg xmlns="http://www.w3.org/2000/svg" viewBox="0 0 64 64" role="img" aria-labelledby="title desc">
  <title id="title">S&amp;Z Trading Icon</title>
  <desc id="desc">Monogram icon for S&amp;Z Trading International</desc>
  <defs>
    <linearGradient id="sz-gradient" x1="0" y1="0" x2="1" y2="1">
      <stop offset="0%" stop-color="hsl(222, 76%, 40%)"></stop>
      <stop offset="100%" stop-color="hsl(25, 95%, 53%)"></stop>
    </linearGradient>
  <clipPath id="SvgjsClipPath1295"><rect width="1000" height="1000" x="0" y="0" rx="500" ry="500"></rect></clipPath></defs>
  <rect x="4" y="4" width="56" height="56" rx="14" fill="url(#sz-gradient)"></rect>
  <g fill="white" opacity="0.35">
    <rect x="10" y="20" width="18" height="2" rx="1"></rect>
    <rect x="10" y="28" width="24" height="2" rx="1"></rect>
    <rect x="10" y="36" width="16" height="2" rx="1"></rect>
  </g>
  <text x="50%" y="52%" text-anchor="middle" font-family="system-ui, -apple-system, BlinkMacSystemFont, 'Segoe UI', sans-serif" font-size="30" font-weight="700" letter-spacing="2" fill="white">
    SZ
  </text>
</svg></svg></g></g></svg></g></svg>
